<?xml version="1.0" ?><svg viewBox="0 0 48 48" xmlns="http://www.w3.org/2000/svg" xmlns:xlink="http://www.w3.org/1999/xlink"><defs><style>.cls-1{fill:url(#linear-gradient);}.cls-2{fill:url(#linear-gradient-2);}.cls-3{fill:#fff;}</style><linearGradient gradientUnits="userSpaceOnUse" id="linear-gradient" x1="24" x2="24" y1="11.27" y2="31.56"><stop offset="0.18" stop-color="#ffc308"/><stop offset="1" stop-color="#de9908"/></linearGradient><linearGradient gradientUnits="userSpaceOnUse" id="linear-gradient-2" x1="24.21" x2="23.46" y1="15.47" y2="37"><stop offset="0.18" stop-color="#df9319"/><stop offset="1" stop-color="#b55e19"/></linearGradient></defs><title/><g id="icons"><g data-name="Layer 3" id="Layer_3"><path class="cls-1" d="M41.51,24A17.51,17.51,0,1,1,24,6.49,17.51,17.51,0,0,1,41.51,24Z"/><path class="cls-2" d="M21.66,30.91,24,33.25l2.34-2.34a3.71,3.71,0,0,0-4.68,0ZM24,16.75a17.07,17.07,0,0,0-11.78,4.72l2.69,2.69a13.28,13.28,0,0,1,18.18,0l2.69-2.69A17.07,17.07,0,0,0,24,16.75Zm-7.39,9.11,2.69,2.69a7.07,7.07,0,0,1,9.4,0l2.69-2.69a10.84,10.84,0,0,0-14.78,0Z"/><path class="cls-3" d="M21.66,29.91,24,32.25l2.34-2.34a3.71,3.71,0,0,0-4.68,0ZM24,15.75a17.07,17.07,0,0,0-11.78,4.72l2.69,2.69a13.28,13.28,0,0,1,18.18,0l2.69-2.69A17.07,17.07,0,0,0,24,15.75Zm-7.39,9.11,2.69,2.69a7.07,7.07,0,0,1,9.4,0l2.69-2.69a10.84,10.84,0,0,0-14.78,0Z"/></g></g></svg>